<svg version="1.1" id="Layer_1" xmlns="http://www.w3.org/2000/svg" xmlns:xlink="http://www.w3.org/1999/xlink" x="0px" y="0px"
	 width="100%" viewBox="0 0 984 254" enable-background="new 0 0 984 254" xml:space="preserve">
<path fill="#000101" opacity="1.000000" stroke="none" 
	d="
M716.000000,255.000000 
	C477.333344,255.000000 239.166672,255.000000 1.000000,255.000000 
	C1.000000,170.333328 1.000000,85.666664 1.000000,1.000000 
	C329.000000,1.000000 657.000000,1.000000 985.000000,1.000000 
	C985.000000,85.666664 985.000000,170.333328 985.000000,255.000000 
	C895.500000,255.000000 806.000000,255.000000 716.000000,255.000000 
M196.706802,89.626022 
	C196.484009,89.305168 196.209808,89.252762 195.429703,89.212761 
	C195.263290,89.162300 195.096878,89.111839 194.670731,88.513191 
	C194.092865,88.442253 193.515015,88.371323 192.343704,88.032333 
	C191.548248,87.704712 190.752777,87.377090 189.643097,86.543671 
	C189.074829,86.457474 188.506546,86.371277 187.228256,85.963562 
	C184.820755,85.422707 182.437256,84.600967 180.001328,84.392807 
	C172.188385,83.725166 170.361237,85.056335 168.597763,92.042770 
	C165.768860,91.835381 162.964203,91.504051 160.154449,91.453224 
	C155.937576,91.376953 152.515076,90.345680 148.900543,87.517372 
	C140.329819,80.810928 130.290558,77.407837 119.217293,79.191528 
	C116.940277,79.558319 113.787552,81.343567 113.145714,83.202553 
	C112.409317,85.335442 113.600456,88.478989 114.721497,90.815376 
	C115.954971,93.386086 118.061180,95.538048 119.825554,97.924377 
	C116.567833,100.179413 112.245804,103.475235 107.599396,106.222404 
	C105.975136,107.182732 103.301422,107.510262 101.535934,106.895294 
	C93.095329,103.955185 84.689621,102.169350 75.896088,105.178917 
	C66.644066,108.345413 64.579254,116.146591 71.227287,123.224815 
	C78.973160,131.471924 88.882874,135.118759 99.871307,136.380127 
	C100.698875,136.475113 101.881378,136.573273 102.244362,137.111420 
	C104.386391,140.287155 106.334564,143.593628 108.414345,146.963593 
	C90.557114,152.507874 92.248512,166.116089 101.861763,175.375320 
	C109.546661,182.777191 119.074997,187.000443 129.914169,187.746414 
	C145.070190,188.789459 151.550217,183.541992 153.213257,168.842758 
	C160.143341,168.523331 167.080490,168.091751 174.022278,167.996399 
	C175.146652,167.980957 176.453430,169.299805 177.401672,170.269943 
	C186.093231,179.162186 196.461258,184.649536 209.026398,184.493027 
	C221.001831,184.343842 225.601120,175.420914 218.790955,165.611954 
	C215.638641,161.071533 211.219193,157.410858 207.257431,153.228043 
	C210.219788,147.904633 213.390091,142.207535 216.115845,137.309280 
	C222.156113,138.134598 227.512115,139.484344 232.854767,139.433350 
	C238.951447,139.375153 241.224731,134.898117 238.641998,129.369217 
	C237.958755,127.906563 236.946136,126.535843 235.849487,125.338394 
	C229.132141,118.003616 220.503418,114.390549 210.869995,113.004478 
	C207.348679,112.497841 204.599930,111.443947 203.705185,107.638695 
	C208.882294,105.248947 209.727539,102.883461 206.579407,98.489334 
	C205.087463,96.406876 202.889877,94.829964 200.768127,92.427872 
	C199.839493,91.955788 198.910873,91.483711 197.999390,91.000000 
	C197.999390,91.000000 197.986618,91.014252 197.770096,90.585732 
	C197.561081,90.288490 197.279007,90.178169 196.917175,90.090591 
	C196.917175,90.090591 196.752884,90.088562 196.706802,89.626022 
M679.178955,173.886871 
	C679.968140,173.000854 681.159851,172.238007 681.475281,171.207047 
	C682.685120,167.253220 683.612427,163.212997 684.647339,159.205582 
	C686.692566,151.286469 688.739258,143.367737 690.785339,135.448837 
	C692.662354,137.229950 693.548584,138.982544 694.023682,140.840286 
	C696.521301,150.606766 698.835510,160.421066 701.433655,170.159973 
	C701.808472,171.564926 703.311279,173.647644 704.402161,173.718353 
	C709.986633,174.080292 715.607239,173.885742 721.204468,173.885742 
	C726.405518,147.058868 731.488892,120.838684 736.599243,94.479630 
	C729.950500,94.479630 723.858459,94.479630 717.598694,94.479630 
	C715.301208,106.167885 713.044678,117.647911 710.788208,129.127945 
	C709.067200,127.485435 708.399658,125.906044 708.009277,124.260872 
	C705.880737,115.290009 703.900818,106.282639 701.641479,97.345535 
	C701.336914,96.140778 699.790039,94.429169 698.740356,94.371353 
	C693.293091,94.071304 687.820374,94.231720 682.184570,94.231720 
	C679.066711,105.969818 676.038269,117.371216 673.009888,128.772614 
	C670.193420,118.363754 668.374207,108.155602 666.295593,98.000549 
	C666.010986,96.610016 664.500427,94.473122 663.445435,94.404488 
	C657.892944,94.043297 652.304443,94.235352 646.384705,94.235352 
	C651.639587,121.122070 656.761841,147.330261 661.952881,173.890488 
	C667.513428,173.890488 672.946533,173.890488 679.178955,173.886871 
M627.588684,98.926262 
	C624.212952,97.372437 620.909119,94.701515 617.447632,94.478455 
	C607.833435,93.858910 598.149780,94.090027 588.500732,94.305939 
	C580.576416,94.483253 574.643005,100.351173 574.559875,108.245171 
	C574.379517,125.387207 574.372070,142.533859 574.557556,159.675751 
	C574.648376,168.064209 581.437866,174.255722 589.713989,174.151337 
	C597.662598,174.051086 605.611450,173.908295 613.560242,173.906357 
	C625.877808,173.903351 631.404968,168.457993 631.450195,156.059250 
	C631.503540,141.411652 631.777649,126.757202 631.394531,112.120407 
	C631.283386,107.872299 629.246338,103.674599 627.588684,98.926262 
M540.217590,152.506348 
	C540.217590,159.585266 540.217590,166.664169 540.217590,173.519928 
	C546.916138,173.519928 552.826843,173.519928 558.543335,173.519928 
	C558.543335,146.927704 558.543335,120.706940 558.543335,94.583488 
	C552.272705,94.583488 546.369690,94.583488 540.079773,94.583488 
	C540.079773,104.690826 540.079773,114.455872 540.079773,124.250565 
	C533.766479,124.250565 527.858093,124.250565 521.319336,124.250565 
	C521.319336,114.128281 521.319336,104.266243 521.319336,94.466751 
	C514.735901,94.466751 508.790436,94.466751 502.601959,94.466751 
	C502.601959,120.923927 502.601959,147.151459 502.601959,173.743134 
	C508.870728,173.743134 514.945312,173.743134 521.586792,173.743134 
	C521.586792,163.678406 521.586792,153.791992 521.586792,143.851974 
	C528.054382,143.851974 533.954041,143.851974 540.217468,143.851974 
	C540.217468,146.576828 540.217468,149.042862 540.217590,152.506348 
M358.319641,160.041199 
	C359.244263,169.082535 365.182312,174.099503 374.253967,173.936722 
	C380.891785,173.817627 387.537659,174.145325 394.179932,174.274368 
	C408.246521,174.547607 415.467102,169.685547 415.304108,154.163803 
	C415.129364,137.519989 415.306946,120.872696 415.241577,104.227264 
	C415.228851,100.981926 414.806976,97.738190 414.575439,94.515961 
	C408.183929,94.515961 402.275604,94.515961 395.843750,94.515961 
	C395.843750,114.877747 395.843750,134.969177 395.843750,154.841965 
	C389.387329,154.841965 383.464600,154.841965 377.151581,154.841965 
	C377.151581,134.624817 377.151581,114.739182 377.151581,94.552216 
	C370.719147,94.552216 364.691620,94.552216 358.281128,94.552216 
	C358.281128,116.258438 358.281128,137.697205 358.319641,160.041199 
M786.181641,112.611343 
	C786.188721,118.274818 786.087891,123.940979 786.228821,129.601120 
	C786.429443,137.653946 792.491211,143.584396 800.481140,143.664581 
	C806.081116,143.720795 811.682007,143.675415 817.279541,143.675415 
	C817.279541,147.815033 817.279541,151.256454 817.279541,155.266602 
	C806.885986,155.266602 796.663208,155.266602 786.488586,155.266602 
	C786.488586,161.756042 786.488586,167.667343 786.488586,173.786728 
	C799.090698,173.786728 811.397339,174.051376 823.685364,173.687805 
	C831.097107,173.468506 836.514343,167.316696 836.658691,159.899139 
	C836.785156,153.405075 836.417175,146.891449 836.772644,140.414169 
	C837.283813,131.100555 829.748840,124.286125 820.474243,124.459976 
	C815.547119,124.552338 810.616882,124.476334 805.703674,124.476334 
	C805.703674,120.500343 805.703674,117.250656 805.703674,113.553658 
	C807.611511,113.553658 809.236389,113.553505 810.861267,113.553665 
	C818.357178,113.554413 825.857056,113.679535 833.345093,113.437546 
	C834.640747,113.395683 836.959167,111.821892 836.978638,110.916382 
	C837.095398,105.495255 836.677551,100.062614 836.420776,94.219505 
	C825.413086,94.219505 814.603271,94.655151 803.845337,94.094460 
	C793.512817,93.555931 784.878540,100.229637 786.181641,112.611343 
M877.466675,113.557716 
	C885.742981,113.557716 894.019287,113.557716 902.371033,113.557716 
	C902.371033,106.866440 902.371033,100.644325 902.371033,94.443832 
	C885.524597,94.443832 869.093323,94.443832 852.533264,94.443832 
	C852.533264,121.018463 852.533264,147.362289 852.533264,173.655060 
	C869.329895,173.655060 885.755432,173.655060 902.232910,173.655060 
	C902.232910,167.374771 902.232910,161.345673 902.232910,154.939728 
	C891.619690,154.939728 881.392456,154.939728 871.364746,154.939728 
	C871.364746,150.985809 871.364746,147.426758 871.364746,143.518921 
	C878.855530,143.518921 886.116028,143.518921 893.560791,143.518921 
	C893.560791,137.081467 893.560791,131.007446 893.560791,124.313431 
	C886.038757,124.313431 878.820129,124.313431 871.732178,124.313431 
	C871.732178,120.433167 871.732178,117.183342 871.732178,113.557533 
	C873.519714,113.557533 874.984497,113.557533 877.466675,113.557716 
M329.042633,110.198006 
	C327.478577,104.866013 325.914520,99.534019 324.366089,94.255295 
	C319.284424,94.255295 314.764587,94.582588 310.317444,94.154572 
	C306.574829,93.794365 305.505737,95.576859 304.660736,98.656128 
	C299.452087,117.637581 294.090118,136.576889 288.830811,155.544540 
	C287.181519,161.492691 285.691742,167.485046 284.018860,173.877945 
	C289.065765,173.877945 293.398285,173.621002 297.684845,173.954620 
	C301.507660,174.252121 303.366577,173.106995 303.958466,169.130051 
	C304.293182,166.880875 305.706116,163.113342 306.967010,162.970291 
	C312.542816,162.337769 318.472412,161.886612 323.771851,163.279694 
	C325.741394,163.797440 326.329956,169.542542 327.573273,172.894577 
	C327.679993,173.182343 327.975708,173.400009 328.258881,173.740845 
	C334.226562,173.740845 340.259796,173.740845 346.562592,173.740845 
	C345.271027,169.041565 344.132660,164.902145 342.995636,160.762344 
	C338.437408,144.165894 333.879547,127.569298 329.042633,110.198006 
M449.252533,125.609436 
	C449.252533,141.557251 449.252533,157.505081 449.252533,173.678604 
	C455.746765,173.678604 461.737854,173.678604 468.370605,173.678604 
	C468.370605,153.384064 468.370605,133.649429 468.370605,113.347557 
	C474.893372,113.347557 480.787750,113.347557 486.532593,113.347557 
	C486.532593,106.683784 486.532593,100.602852 486.532593,94.592247 
	C467.631500,94.592247 449.074097,94.592247 430.579559,94.592247 
	C430.579559,101.019989 430.579559,107.088478 430.579559,113.494812 
	C436.848755,113.494812 442.803375,113.494812 449.252167,113.494812 
	C449.252167,117.440010 449.252167,121.043701 449.252533,125.609436 
M757.666199,173.894592 
	C761.926514,173.894592 766.186890,173.894592 770.441101,173.894592 
	C770.441101,147.013748 770.441101,120.791031 770.441101,94.630287 
	C764.095398,94.630287 758.056396,94.630287 751.893188,94.630287 
	C751.893188,121.239670 751.893188,147.437408 751.893188,173.894791 
	C753.747681,173.894791 755.237549,173.894791 757.666199,173.894592 
z"/>
<path fill="#DFE7EF" opacity="1.000000" stroke="none" 
	d="
M194.930466,89.061371 
	C195.096878,89.111839 195.263290,89.162300 195.713989,89.541977 
	C195.998291,89.871193 196.337357,90.112885 196.337357,90.112885 
	C196.337357,90.112885 196.752884,90.088562 196.752884,90.088562 
	C196.752884,90.088562 196.917175,90.090591 196.998383,90.405434 
	C197.331650,90.973381 197.633987,91.071373 197.986618,91.014252 
	C197.986618,91.014252 197.999390,91.000000 197.850159,91.330780 
	C196.798813,91.764709 195.896698,91.867851 194.664383,91.883438 
	C192.914474,91.068214 191.494751,90.340561 189.898758,89.384956 
	C189.163208,89.087883 188.603943,89.018761 187.796494,88.883873 
	C187.388657,88.756416 187.228989,88.694740 186.875519,88.410461 
	C186.106277,88.131165 185.530884,88.074455 184.506897,87.969513 
	C183.233078,87.870316 182.350891,87.606216 181.593353,87.808647 
	C179.394348,88.396255 177.245346,89.170975 175.076721,89.872284 
	C176.159164,92.244644 176.605484,95.629356 178.450256,96.788490 
	C182.938965,99.608955 187.982254,101.651222 192.987366,103.507629 
	C196.159134,104.684052 200.601395,105.733559 202.092743,101.965721 
	C202.820206,100.127823 199.599625,96.727226 198.416901,93.843994 
	C199.449127,93.444016 200.230560,93.234016 201.011978,93.024010 
	C202.889877,94.829964 205.087463,96.406876 206.579407,98.489334 
	C209.727539,102.883461 208.882294,105.248947 203.705185,107.638695 
	C204.599930,111.443947 207.348679,112.497841 210.869995,113.004478 
	C220.503418,114.390549 229.132141,118.003616 235.849487,125.338394 
	C236.946136,126.535843 237.958755,127.906563 238.641998,129.369217 
	C241.224731,134.898117 238.951447,139.375153 232.854767,139.433350 
	C227.512115,139.484344 222.156113,138.134598 216.115845,137.309280 
	C213.390091,142.207535 210.219788,147.904633 207.257431,153.228043 
	C211.219193,157.410858 215.638641,161.071533 218.790955,165.611954 
	C225.601120,175.420914 221.001831,184.343842 209.026398,184.493027 
	C196.461258,184.649536 186.093231,179.162186 177.401672,170.269943 
	C176.453430,169.299805 175.146652,167.980957 174.022278,167.996399 
	C167.080490,168.091751 160.143341,168.523331 153.213257,168.842758 
	C151.550217,183.541992 145.070190,188.789459 129.914169,187.746414 
	C119.074997,187.000443 109.546661,182.777191 101.861763,175.375320 
	C92.248512,166.116089 90.557114,152.507874 108.414345,146.963593 
	C106.334564,143.593628 104.386391,140.287155 102.244362,137.111420 
	C101.881378,136.573273 100.698875,136.475113 99.871307,136.380127 
	C88.882874,135.118759 78.973160,131.471924 71.227287,123.224815 
	C64.579254,116.146591 66.644066,108.345413 75.896088,105.178917 
	C84.689621,102.169350 93.095329,103.955185 101.535934,106.895294 
	C103.301422,107.510262 105.975136,107.182732 107.599396,106.222404 
	C112.245804,103.475235 116.567833,100.179413 119.825554,97.924377 
	C118.061180,95.538048 115.954971,93.386086 114.721497,90.815376 
	C113.600456,88.478989 112.409317,85.335442 113.145714,83.202553 
	C113.787552,81.343567 116.940277,79.558319 119.217293,79.191528 
	C130.290558,77.407837 140.329819,80.810928 148.900543,87.517372 
	C152.515076,90.345680 155.937576,91.376953 160.154449,91.453224 
	C162.964203,91.504051 165.768860,91.835381 168.597763,92.042770 
	C170.361237,85.056335 172.188385,83.725166 180.001328,84.392807 
	C182.437256,84.600967 184.820755,85.422707 187.752625,86.361984 
	C188.837112,86.856766 189.397217,86.953117 189.957321,87.049469 
	C190.752777,87.377090 191.548248,87.704712 192.809311,88.398834 
	C193.826767,88.864014 194.378616,88.962692 194.930466,89.061371 
M191.597366,106.311127 
	C190.745499,106.184303 189.893646,106.057480 188.561508,105.799759 
	C188.561508,105.799759 188.100021,105.613197 187.742630,105.163429 
	C187.187332,105.082115 186.632034,105.000801 185.341492,104.758949 
	C181.792694,108.284492 178.243912,111.810036 174.782349,115.248932 
	C181.369797,123.490524 190.299118,121.638824 198.656982,121.896980 
	C198.757996,121.900108 198.876205,121.346275 198.994995,120.204422 
	C199.034119,118.514893 199.073227,116.825363 199.442017,114.607491 
	C200.310898,114.086533 201.179779,113.565567 202.689957,112.891602 
	C202.479919,112.245438 202.269897,111.599274 201.487686,110.562561 
	C199.934296,109.659241 198.380920,108.755928 196.553864,107.655350 
	C196.553864,107.655350 196.261246,107.823227 195.654388,107.724915 
	C195.461044,107.656967 195.267715,107.589020 194.671509,107.110168 
	C194.108185,107.069183 193.544846,107.028198 192.513351,106.916946 
	C192.513351,106.916946 192.060318,106.779518 191.597366,106.311127 
M126.038338,152.846054 
	C123.412041,152.472061 120.794220,152.017426 118.157715,151.740585 
	C112.406586,151.136673 105.352859,154.319748 103.540985,158.247787 
	C101.475708,162.725189 102.978455,168.112915 108.172966,172.835617 
	C116.114433,180.055756 125.575706,182.847763 136.176422,181.186874 
	C140.280365,180.543869 144.566605,178.512268 144.927917,174.224274 
	C145.241791,170.499573 144.280762,165.435959 141.847427,162.985931 
	C137.698013,158.808090 131.953156,156.214844 126.038338,152.846054 
M138.030853,146.579391 
	C142.394836,141.768188 146.758835,136.956985 151.319427,131.929031 
	C147.387390,128.996506 144.082413,124.876114 140.012848,123.880257 
	C133.735184,122.344055 126.933937,122.947525 120.076508,122.630547 
	C121.374161,131.426392 115.214256,133.802490 109.033890,136.122543 
	C112.067917,142.375748 115.325157,148.113266 123.662376,147.706360 
	C125.543900,147.614517 127.622864,148.354126 129.360901,149.215515 
	C132.820145,150.929977 135.336121,149.900665 138.030853,146.579391 
M185.914078,171.721100 
	C191.808563,174.156555 197.513718,177.409714 203.643494,178.828888 
	C212.081390,180.782455 217.072647,175.078247 214.356339,167.700180 
	C210.844467,158.161179 192.356659,149.481918 182.903076,152.934158 
	C179.042572,154.343918 176.895844,158.475815 178.808762,162.070328 
	C180.556549,165.354553 183.158478,168.184235 185.914078,171.721100 
M164.330582,136.969193 
	C161.991501,136.336975 159.652420,135.704758 157.349335,135.082260 
	C151.657333,141.471725 146.020248,147.799530 140.462555,154.038193 
	C143.383881,156.798935 145.882660,159.191803 148.423035,161.539719 
	C149.085663,162.152145 149.870239,163.078262 150.611618,163.090622 
	C157.694702,163.208618 164.780548,163.161118 170.695679,163.161118 
	C171.381500,159.038254 171.382965,156.134293 172.405380,153.650589 
	C173.559601,150.846725 175.631851,148.420792 177.385193,145.706100 
	C175.171829,142.853012 172.283875,137.042084 164.330582,136.969193 
M84.458229,127.353119 
	C91.011154,130.449463 97.832695,132.059952 105.124298,131.127350 
	C111.826904,130.270065 115.442101,124.715797 112.527290,119.728638 
	C107.395187,110.947754 88.883850,105.147072 79.636566,109.422058 
	C74.140274,111.962975 72.885574,116.892540 76.910278,121.446152 
	C78.841438,123.631104 81.445068,125.221710 84.458229,127.353119 
M191.517456,148.162338 
	C194.634338,148.974411 197.751221,149.786484 201.027695,150.640137 
	C204.198196,144.963181 207.425186,139.185089 210.269363,134.092422 
	C203.438278,124.635078 194.159821,125.667427 184.501602,125.867149 
	C187.291229,132.838226 182.785965,135.651108 177.329514,138.104370 
	C181.022919,142.897110 183.809937,148.147980 191.517456,148.162338 
M151.054642,126.497551 
	C156.947281,131.178162 163.652130,133.868240 171.169052,133.285568 
	C173.819504,133.080124 177.673309,131.616974 178.514923,129.665771 
	C179.326614,127.783943 177.575363,124.020477 175.874451,121.980431 
	C171.262970,116.449455 164.891571,113.773857 157.839508,112.532539 
	C153.253677,111.725327 148.437927,111.236519 145.907898,115.795250 
	C143.330246,120.439781 147.804291,123.160484 151.054642,126.497551 
M131.697983,119.030396 
	C134.130875,119.030396 136.563782,119.030396 139.113556,119.030396 
	C138.051605,113.000336 141.542038,110.358276 146.601654,108.439957 
	C144.585587,106.662491 143.225204,104.708069 141.375595,103.954727 
	C129.215942,99.002060 125.930412,99.593239 115.372108,107.926620 
	C113.865753,109.115540 112.363609,110.309799 110.469360,111.810738 
	C113.931267,114.060959 116.930412,116.784943 120.454269,118.069565 
	C123.590340,119.212814 127.307571,118.761856 131.697983,119.030396 
M143.125397,99.700699 
	C145.220947,98.743416 148.875824,98.022629 149.064865,96.776192 
	C149.388855,94.639908 148.170364,91.488876 146.501648,89.970535 
	C140.305527,84.332741 132.735519,81.759575 124.342506,82.543343 
	C122.356216,82.728836 119.174370,84.136063 118.912384,85.452812 
	C118.525864,87.395508 119.666550,90.400345 121.201889,91.832512 
	C127.055206,97.292549 134.178528,99.993347 143.125397,99.700699 
M213.879486,116.107445 
	C212.723846,115.981201 211.484421,115.527664 210.430222,115.797592 
	C208.307465,116.341110 205.558609,116.743889 204.464340,118.231682 
	C203.665100,119.318321 204.656113,122.297073 205.616425,123.999565 
	C209.153992,130.271072 222.241287,136.341522 229.282639,135.284592 
	C234.226852,134.542465 235.495346,131.895706 232.720276,127.716553 
	C228.428207,121.252815 221.756042,118.476196 213.879486,116.107445 
M150.269119,106.374184 
	C151.352997,107.030075 152.359375,107.990509 153.534088,108.289429 
	C158.773819,109.622734 164.061630,110.767029 169.849899,112.098763 
	C172.809616,109.005226 176.167389,105.495628 179.436935,102.078255 
	C172.970657,94.057266 164.280716,95.395477 155.849289,94.525307 
	C155.785431,99.034241 154.354706,102.254150 149.867447,103.295746 
	C149.641235,103.348259 149.763123,104.900345 150.269119,106.374184 
z"/>
<path fill="#F5F8FA" opacity="1.000000" stroke="none" 
	d="
M678.779297,173.888672 
	C672.946533,173.890488 667.513428,173.890488 661.952881,173.890488 
	C656.761841,147.330261 651.639587,121.122070 646.384705,94.235352 
	C652.304443,94.235352 657.892944,94.043297 663.445435,94.404488 
	C664.500427,94.473122 666.010986,96.610016 666.295593,98.000549 
	C668.374207,108.155602 670.193420,118.363754 673.009888,128.772614 
	C676.038269,117.371216 679.066711,105.969818 682.184570,94.231720 
	C687.820374,94.231720 693.293091,94.071304 698.740356,94.371353 
	C699.790039,94.429169 701.336914,96.140778 701.641479,97.345535 
	C703.900818,106.282639 705.880737,115.290009 708.009277,124.260872 
	C708.399658,125.906044 709.067200,127.485435 710.788208,129.127945 
	C713.044678,117.647911 715.301208,106.167885 717.598694,94.479630 
	C723.858459,94.479630 729.950500,94.479630 736.599243,94.479630 
	C731.488892,120.838684 726.405518,147.058868 721.204468,173.885742 
	C715.607239,173.885742 709.986633,174.080292 704.402161,173.718353 
	C703.311279,173.647644 701.808472,171.564926 701.433655,170.159973 
	C698.835510,160.421066 696.521301,150.606766 694.023682,140.840286 
	C693.548584,138.982544 692.662354,137.229950 690.785339,135.448837 
	C688.739258,143.367737 686.692566,151.286469 684.647339,159.205582 
	C683.612427,163.212997 682.685120,167.253220 681.475281,171.207047 
	C681.159851,172.238007 679.968140,173.000854 678.779297,173.888672 
z"/>
<path fill="#F3F6F9" opacity="1.000000" stroke="none" 
	d="
M627.840454,99.190025 
	C629.246338,103.674599 631.283386,107.872299 631.394531,112.120407 
	C631.777649,126.757202 631.503540,141.411652 631.450195,156.059250 
	C631.404968,168.457993 625.877808,173.903351 613.560242,173.906357 
	C605.611450,173.908295 597.662598,174.051086 589.713989,174.151337 
	C581.437866,174.255722 574.648376,168.064209 574.557556,159.675751 
	C574.372070,142.533859 574.379517,125.387207 574.559875,108.245171 
	C574.643005,100.351173 580.576416,94.483253 588.500732,94.305939 
	C598.149780,94.090027 607.833435,93.858910 617.447632,94.478455 
	C620.909119,94.701515 624.212952,97.372437 627.840454,99.190025 
M595.401733,113.525009 
	C594.782959,114.294434 593.631531,115.059280 593.624817,115.833931 
	C593.513550,128.780243 593.545410,141.727783 593.545410,154.895248 
	C599.925720,154.895248 605.979065,154.895248 612.043579,154.895248 
	C612.043579,141.046219 612.043579,127.478615 612.043579,113.507706 
	C606.660461,113.507706 601.539612,113.507706 595.401733,113.525009 
z"/>
<path fill="#F4F6F9" opacity="1.000000" stroke="none" 
	d="
M540.217529,152.007629 
	C540.217468,149.042862 540.217468,146.576828 540.217468,143.851974 
	C533.954041,143.851974 528.054382,143.851974 521.586792,143.851974 
	C521.586792,153.791992 521.586792,163.678406 521.586792,173.743134 
	C514.945312,173.743134 508.870728,173.743134 502.601959,173.743134 
	C502.601959,147.151459 502.601959,120.923927 502.601959,94.466751 
	C508.790436,94.466751 514.735901,94.466751 521.319336,94.466751 
	C521.319336,104.266243 521.319336,114.128281 521.319336,124.250565 
	C527.858093,124.250565 533.766479,124.250565 540.079773,124.250565 
	C540.079773,114.455872 540.079773,104.690826 540.079773,94.583488 
	C546.369690,94.583488 552.272705,94.583488 558.543335,94.583488 
	C558.543335,120.706940 558.543335,146.927704 558.543335,173.519928 
	C552.826843,173.519928 546.916138,173.519928 540.217590,173.519928 
	C540.217590,166.664169 540.217590,159.585266 540.217529,152.007629 
z"/>
<path fill="#F3F6F9" opacity="1.000000" stroke="none" 
	d="
M358.300385,159.588593 
	C358.281128,137.697205 358.281128,116.258438 358.281128,94.552216 
	C364.691620,94.552216 370.719147,94.552216 377.151581,94.552216 
	C377.151581,114.739182 377.151581,134.624817 377.151581,154.841965 
	C383.464600,154.841965 389.387329,154.841965 395.843750,154.841965 
	C395.843750,134.969177 395.843750,114.877747 395.843750,94.515961 
	C402.275604,94.515961 408.183929,94.515961 414.575439,94.515961 
	C414.806976,97.738190 415.228851,100.981926 415.241577,104.227264 
	C415.306946,120.872696 415.129364,137.519989 415.304108,154.163803 
	C415.467102,169.685547 408.246521,174.547607 394.179932,174.274368 
	C387.537659,174.145325 380.891785,173.817627 374.253967,173.936722 
	C365.182312,174.099503 359.244263,169.082535 358.300385,159.588593 
z"/>
<path fill="#F3F6F9" opacity="1.000000" stroke="none" 
	d="
M786.181763,112.132568 
	C784.878540,100.229637 793.512817,93.555931 803.845337,94.094460 
	C814.603271,94.655151 825.413086,94.219505 836.420776,94.219505 
	C836.677551,100.062614 837.095398,105.495255 836.978638,110.916382 
	C836.959167,111.821892 834.640747,113.395683 833.345093,113.437546 
	C825.857056,113.679535 818.357178,113.554413 810.861267,113.553665 
	C809.236389,113.553505 807.611511,113.553658 805.703674,113.553658 
	C805.703674,117.250656 805.703674,120.500343 805.703674,124.476334 
	C810.616882,124.476334 815.547119,124.552338 820.474243,124.459976 
	C829.748840,124.286125 837.283813,131.100555 836.772644,140.414169 
	C836.417175,146.891449 836.785156,153.405075 836.658691,159.899139 
	C836.514343,167.316696 831.097107,173.468506 823.685364,173.687805 
	C811.397339,174.051376 799.090698,173.786728 786.488586,173.786728 
	C786.488586,167.667343 786.488586,161.756042 786.488586,155.266602 
	C796.663208,155.266602 806.885986,155.266602 817.279541,155.266602 
	C817.279541,151.256454 817.279541,147.815033 817.279541,143.675415 
	C811.682007,143.675415 806.081116,143.720795 800.481140,143.664581 
	C792.491211,143.584396 786.429443,137.653946 786.228821,129.601120 
	C786.087891,123.940979 786.188721,118.274818 786.181763,112.132568 
z"/>
<path fill="#F3F6F9" opacity="1.000000" stroke="none" 
	d="
M876.958008,113.557625 
	C874.984497,113.557533 873.519714,113.557533 871.732178,113.557533 
	C871.732178,117.183342 871.732178,120.433167 871.732178,124.313431 
	C878.820129,124.313431 886.038757,124.313431 893.560791,124.313431 
	C893.560791,131.007446 893.560791,137.081467 893.560791,143.518921 
	C886.116028,143.518921 878.855530,143.518921 871.364746,143.518921 
	C871.364746,147.426758 871.364746,150.985809 871.364746,154.939728 
	C881.392456,154.939728 891.619690,154.939728 902.232910,154.939728 
	C902.232910,161.345673 902.232910,167.374771 902.232910,173.655060 
	C885.755432,173.655060 869.329895,173.655060 852.533264,173.655060 
	C852.533264,147.362289 852.533264,121.018463 852.533264,94.443832 
	C869.093323,94.443832 885.524597,94.443832 902.371033,94.443832 
	C902.371033,100.644325 902.371033,106.866440 902.371033,113.557716 
	C894.019287,113.557716 885.742981,113.557716 876.958008,113.557625 
z"/>
<path fill="#F6F8FA" opacity="1.000000" stroke="none" 
	d="
M329.182068,110.585388 
	C333.879547,127.569298 338.437408,144.165894 342.995636,160.762344 
	C344.132660,164.902145 345.271027,169.041565 346.562592,173.740845 
	C340.259796,173.740845 334.226562,173.740845 328.258881,173.740845 
	C327.975708,173.400009 327.679993,173.182343 327.573273,172.894577 
	C326.329956,169.542542 325.741394,163.797440 323.771851,163.279694 
	C318.472412,161.886612 312.542816,162.337769 306.967010,162.970291 
	C305.706116,163.113342 304.293182,166.880875 303.958466,169.130051 
	C303.366577,173.106995 301.507660,174.252121 297.684845,173.954620 
	C293.398285,173.621002 289.065765,173.877945 284.018860,173.877945 
	C285.691742,167.485046 287.181519,161.492691 288.830811,155.544540 
	C294.090118,136.576889 299.452087,117.637581 304.660736,98.656128 
	C305.505737,95.576859 306.574829,93.794365 310.317444,94.154572 
	C314.764587,94.582588 319.284424,94.255295 324.366089,94.255295 
	C325.914520,99.534019 327.478577,104.866013 329.182068,110.585388 
M314.708740,143.642761 
	C316.095795,143.543320 317.482819,143.443878 319.358704,143.309372 
	C318.043335,138.369873 316.869171,133.960617 315.695007,129.551361 
	C313.705505,133.493790 312.491913,137.380249 311.635223,141.343872 
	C311.510529,141.920837 313.091553,142.866470 314.708740,143.642761 
z"/>
<path fill="#F4F7F9" opacity="1.000000" stroke="none" 
	d="
M449.252350,125.128410 
	C449.252167,121.043701 449.252167,117.440010 449.252167,113.494812 
	C442.803375,113.494812 436.848755,113.494812 430.579559,113.494812 
	C430.579559,107.088478 430.579559,101.019989 430.579559,94.592247 
	C449.074097,94.592247 467.631500,94.592247 486.532593,94.592247 
	C486.532593,100.602852 486.532593,106.683784 486.532593,113.347557 
	C480.787750,113.347557 474.893372,113.347557 468.370605,113.347557 
	C468.370605,133.649429 468.370605,153.384064 468.370605,173.678604 
	C461.737854,173.678604 455.746765,173.678604 449.252533,173.678604 
	C449.252533,157.505081 449.252533,141.557251 449.252350,125.128410 
z"/>
<path fill="#F3F6F9" opacity="1.000000" stroke="none" 
	d="
M757.196777,173.894684 
	C755.237549,173.894791 753.747681,173.894791 751.893188,173.894791 
	C751.893188,147.437408 751.893188,121.239670 751.893188,94.630287 
	C758.056396,94.630287 764.095398,94.630287 770.441101,94.630287 
	C770.441101,120.791031 770.441101,147.013748 770.441101,173.894592 
	C766.186890,173.894592 761.926514,173.894592 757.196777,173.894684 
z"/>
<path fill="#9CB4CD" opacity="1.000000" stroke="none" 
	d="
M194.994568,91.971008 
	C195.896698,91.867851 196.798813,91.764709 197.841583,91.336594 
	C198.910873,91.483711 199.839493,91.955788 200.890045,92.725937 
	C200.230560,93.234016 199.449127,93.444016 198.092987,93.771957 
	C196.677032,93.250275 195.835800,92.610641 194.994568,91.971008 
z"/>
<path fill="#9CB4CD" opacity="1.000000" stroke="none" 
	d="
M194.800598,88.787277 
	C194.378616,88.962692 193.826767,88.864014 193.106033,88.532867 
	C193.515015,88.371323 194.092865,88.442253 194.800598,88.787277 
z"/>
<path fill="#9CB4CD" opacity="1.000000" stroke="none" 
	d="
M189.800201,86.796570 
	C189.397217,86.953117 188.837112,86.856766 188.107635,86.522751 
	C188.506546,86.371277 189.074829,86.457474 189.800201,86.796570 
z"/>
<path fill="#9CB4CD" opacity="1.000000" stroke="none" 
	d="
M197.878357,90.799988 
	C197.633987,91.071373 197.331650,90.973381 197.001740,90.487518 
	C197.279007,90.178169 197.561081,90.288490 197.878357,90.799988 
z"/>
<path fill="#9CB4CD" opacity="1.000000" stroke="none" 
	d="
M196.729843,89.857292 
	C196.752884,90.088562 196.337357,90.112885 196.337357,90.112885 
	C196.337357,90.112885 195.998291,89.871193 195.941254,89.669998 
	C196.209808,89.252762 196.484009,89.305168 196.729843,89.857292 
z"/>
<path fill="#030506" opacity="1.000000" stroke="none" 
	d="
M126.458435,152.900970 
	C131.953156,156.214844 137.698013,158.808090 141.847427,162.985931 
	C144.280762,165.435959 145.241791,170.499573 144.927917,174.224274 
	C144.566605,178.512268 140.280365,180.543869 136.176422,181.186874 
	C125.575706,182.847763 116.114433,180.055756 108.172966,172.835617 
	C102.978455,168.112915 101.475708,162.725189 103.540985,158.247787 
	C105.352859,154.319748 112.406586,151.136673 118.157715,151.740585 
	C120.794220,152.017426 123.412041,152.472061 126.458435,152.900970 
z"/>
<path fill="#030508" opacity="1.000000" stroke="none" 
	d="
M137.778915,146.855209 
	C135.336121,149.900665 132.820145,150.929977 129.360901,149.215515 
	C127.622864,148.354126 125.543900,147.614517 123.662376,147.706360 
	C115.325157,148.113266 112.067917,142.375748 109.033890,136.122543 
	C115.214256,133.802490 121.374161,131.426392 120.076508,122.630547 
	C126.933937,122.947525 133.735184,122.344055 140.012848,123.880257 
	C144.082413,124.876114 147.387390,128.996506 151.319427,131.929031 
	C146.758835,136.956985 142.394836,141.768188 137.778915,146.855209 
z"/>
<path fill="#030608" opacity="1.000000" stroke="none" 
	d="
M185.649033,171.467667 
	C183.158478,168.184235 180.556549,165.354553 178.808762,162.070328 
	C176.895844,158.475815 179.042572,154.343918 182.903076,152.934158 
	C192.356659,149.481918 210.844467,158.161179 214.356339,167.700180 
	C217.072647,175.078247 212.081390,180.782455 203.643494,178.828888 
	C197.513718,177.409714 191.808563,174.156555 185.649033,171.467667 
z"/>
<path fill="#040609" opacity="1.000000" stroke="none" 
	d="
M164.694550,136.973663 
	C172.283875,137.042084 175.171829,142.853012 177.385193,145.706100 
	C175.631851,148.420792 173.559601,150.846725 172.405380,153.650589 
	C171.382965,156.134293 171.381500,159.038254 170.695679,163.161118 
	C164.780548,163.161118 157.694702,163.208618 150.611618,163.090622 
	C149.870239,163.078262 149.085663,162.152145 148.423035,161.539719 
	C145.882660,159.191803 143.383881,156.798935 140.462555,154.038193 
	C146.020248,147.799530 151.657333,141.471725 157.349335,135.082260 
	C159.652420,135.704758 161.991501,136.336975 164.694550,136.973663 
z"/>
<path fill="#020406" opacity="1.000000" stroke="none" 
	d="
M84.101189,127.217300 
	C81.445068,125.221710 78.841438,123.631104 76.910278,121.446152 
	C72.885574,116.892540 74.140274,111.962975 79.636566,109.422058 
	C88.883850,105.147072 107.395187,110.947754 112.527290,119.728638 
	C115.442101,124.715797 111.826904,130.270065 105.124298,131.127350 
	C97.832695,132.059952 91.011154,130.449463 84.101189,127.217300 
z"/>
<path fill="#04070A" opacity="1.000000" stroke="none" 
	d="
M191.102173,148.119049 
	C183.809937,148.147980 181.022919,142.897110 177.329514,138.104370 
	C182.785965,135.651108 187.291229,132.838226 184.501602,125.867149 
	C194.159821,125.667427 203.438278,124.635078 210.269363,134.092422 
	C207.425186,139.185089 204.198196,144.963181 201.027695,150.640137 
	C197.751221,149.786484 194.634338,148.974411 191.102173,148.119049 
z"/>
<path fill="#04070A" opacity="1.000000" stroke="none" 
	d="
M150.717133,126.348686 
	C147.804291,123.160484 143.330246,120.439781 145.907898,115.795250 
	C148.437927,111.236519 153.253677,111.725327 157.839508,112.532539 
	C164.891571,113.773857 171.262970,116.449455 175.874451,121.980431 
	C177.575363,124.020477 179.326614,127.783943 178.514923,129.665771 
	C177.673309,131.616974 173.819504,133.080124 171.169052,133.285568 
	C163.652130,133.868240 156.947281,131.178162 150.717133,126.348686 
z"/>
<path fill="#05080B" opacity="1.000000" stroke="none" 
	d="
M131.233154,119.022446 
	C127.307571,118.761856 123.590340,119.212814 120.454269,118.069565 
	C116.930412,116.784943 113.931267,114.060959 110.469360,111.810738 
	C112.363609,110.309799 113.865753,109.115540 115.372108,107.926620 
	C125.930412,99.593239 129.215942,99.002060 141.375595,103.954727 
	C143.225204,104.708069 144.585587,106.662491 146.601654,108.439957 
	C141.542038,110.358276 138.051605,113.000336 139.113556,119.030396 
	C136.563782,119.030396 134.130875,119.030396 131.233154,119.022446 
z"/>
<path fill="#050A0E" opacity="1.000000" stroke="none" 
	d="
M142.707809,99.727539 
	C134.178528,99.993347 127.055206,97.292549 121.201889,91.832512 
	C119.666550,90.400345 118.525864,87.395508 118.912384,85.452812 
	C119.174370,84.136063 122.356216,82.728836 124.342506,82.543343 
	C132.735519,81.759575 140.305527,84.332741 146.501648,89.970535 
	C148.170364,91.488876 149.388855,94.639908 149.064865,96.776192 
	C148.875824,98.022629 145.220947,98.743416 142.707809,99.727539 
z"/>
<path fill="#030608" opacity="1.000000" stroke="none" 
	d="
M214.273193,116.264175 
	C221.756042,118.476196 228.428207,121.252815 232.720276,127.716553 
	C235.495346,131.895706 234.226852,134.542465 229.282639,135.284592 
	C222.241287,136.341522 209.153992,130.271072 205.616425,123.999565 
	C204.656113,122.297073 203.665100,119.318321 204.464340,118.231682 
	C205.558609,116.743889 208.307465,116.341110 210.430222,115.797592 
	C211.484421,115.527664 212.723846,115.981201 214.273193,116.264175 
z"/>
<path fill="#05080C" opacity="1.000000" stroke="none" 
	d="
M149.996033,106.064201 
	C149.763123,104.900345 149.641235,103.348259 149.867447,103.295746 
	C154.354706,102.254150 155.785431,99.034241 155.849289,94.525307 
	C164.280716,95.395477 172.970657,94.057266 179.436935,102.078255 
	C176.167389,105.495628 172.809616,109.005226 169.849899,112.098763 
	C164.061630,110.767029 158.773819,109.622734 153.534088,108.289429 
	C152.359375,107.990509 151.352997,107.030075 149.996033,106.064201 
z"/>
<path fill="#030508" opacity="1.000000" stroke="none" 
	d="
M202.048660,113.044609 
	C201.179779,113.565567 200.310898,114.086533 198.972488,114.999626 
	C198.664093,117.278648 198.825241,119.165535 198.986389,121.052422 
	C198.876205,121.346275 198.757996,121.900108 198.656982,121.896980 
	C190.299118,121.638824 181.369797,123.490524 174.782349,115.248932 
	C178.243912,111.810036 181.792694,108.284492 185.856522,105.104843 
	C186.947708,105.504883 187.523865,105.559036 188.100021,105.613197 
	C188.100021,105.613197 188.561508,105.799759 188.977356,106.158325 
	C190.282242,106.604424 191.171280,106.691971 192.060318,106.779518 
	C192.060318,106.779518 192.513351,106.916946 192.928268,107.195343 
	C193.920242,107.489510 194.497314,107.505287 195.074371,107.521072 
	C195.267715,107.589020 195.461044,107.656967 195.938538,107.966614 
	C196.424301,108.089745 196.625916,107.971176 196.827530,107.852615 
	C198.380920,108.755928 199.934296,109.659241 201.827301,111.106659 
	C202.127487,112.115379 202.088074,112.579994 202.048660,113.044609 
z"/>
<path fill="#040709" opacity="1.000000" stroke="none" 
	d="
M194.664383,91.883438 
	C195.835800,92.610641 196.677032,93.250275 197.842194,93.961945 
	C199.599625,96.727226 202.820206,100.127823 202.092743,101.965721 
	C200.601395,105.733559 196.159134,104.684052 192.987366,103.507629 
	C187.982254,101.651222 182.938965,99.608955 178.450256,96.788490 
	C176.605484,95.629356 176.159164,92.244644 175.076721,89.872284 
	C177.245346,89.170975 179.394348,88.396255 181.593353,87.808647 
	C182.350891,87.606216 183.233078,87.870316 184.690186,88.213242 
	C185.904480,88.547813 186.486908,88.590431 187.069336,88.633057 
	C187.228989,88.694740 187.388657,88.756416 187.944702,89.145538 
	C188.919067,89.519615 189.497055,89.566261 190.075027,89.612907 
	C191.494751,90.340561 192.914474,91.068214 194.664383,91.883438 
z"/>
<path fill="#93ADC8" opacity="1.000000" stroke="none" 
	d="
M198.990692,120.628418 
	C198.825241,119.165535 198.664093,117.278648 198.807648,115.263794 
	C199.073227,116.825363 199.034119,118.514893 198.990692,120.628418 
z"/>
<path fill="#93ADC8" opacity="1.000000" stroke="none" 
	d="
M191.828842,106.545319 
	C191.171280,106.691971 190.282242,106.604424 189.217499,106.223770 
	C189.893646,106.057480 190.745499,106.184303 191.828842,106.545319 
z"/>
<path fill="#93ADC8" opacity="1.000000" stroke="none" 
	d="
M187.921326,105.388313 
	C187.523865,105.559036 186.947708,105.504883 186.224152,105.185104 
	C186.632034,105.000801 187.187332,105.082115 187.921326,105.388313 
z"/>
<path fill="#93ADC8" opacity="1.000000" stroke="none" 
	d="
M202.369308,112.968109 
	C202.088074,112.579994 202.127487,112.115379 202.113388,111.301933 
	C202.269897,111.599274 202.479919,112.245438 202.369308,112.968109 
z"/>
<path fill="#9CB4CD" opacity="1.000000" stroke="none" 
	d="
M189.898758,89.384956 
	C189.497055,89.566261 188.919067,89.519615 188.192871,89.211304 
	C188.603943,89.018761 189.163208,89.087883 189.898758,89.384956 
z"/>
<path fill="#9CB4CD" opacity="1.000000" stroke="none" 
	d="
M186.875519,88.410461 
	C186.486908,88.590431 185.904480,88.547813 185.138763,88.261475 
	C185.530884,88.074455 186.106277,88.131165 186.875519,88.410461 
z"/>
<path fill="#93ADC8" opacity="1.000000" stroke="none" 
	d="
M194.872940,107.315620 
	C194.497314,107.505287 193.920242,107.489510 193.162354,107.230469 
	C193.544846,107.028198 194.108185,107.069183 194.872940,107.315620 
z"/>
<path fill="#93ADC8" opacity="1.000000" stroke="none" 
	d="
M196.690704,107.753983 
	C196.625916,107.971176 196.424301,108.089745 196.241974,108.015762 
	C196.261246,107.823227 196.553864,107.655350 196.690704,107.753983 
z"/>
<path fill="#020304" opacity="1.000000" stroke="none" 
	d="
M595.910217,113.516357 
	C601.539612,113.507706 606.660461,113.507706 612.043579,113.507706 
	C612.043579,127.478615 612.043579,141.046219 612.043579,154.895248 
	C605.979065,154.895248 599.925720,154.895248 593.545410,154.895248 
	C593.545410,141.727783 593.513550,128.780243 593.624817,115.833931 
	C593.631531,115.059280 594.782959,114.294434 595.910217,113.516357 
z"/>
<path fill="#1C2D3E" opacity="1.000000" stroke="none" 
	d="
M314.296021,143.642151 
	C313.091553,142.866470 311.510529,141.920837 311.635223,141.343872 
	C312.491913,137.380249 313.705505,133.493790 315.695007,129.551361 
	C316.869171,133.960617 318.043335,138.369873 319.358704,143.309372 
	C317.482819,143.443878 316.095795,143.543320 314.296021,143.642151 
z"/>
</svg>